<mxfile host="Electron" modified="2024-07-12T14:29:08.873Z" agent="Mozilla/5.0 (Macintosh; Intel Mac OS X 10_15_7) AppleWebKit/537.36 (KHTML, like Gecko) draw.io/24.6.4 Chrome/124.0.6367.207 Electron/30.0.6 Safari/537.36" etag="Dh1IoWOZwBqcemkgEv71" version="24.6.4" type="device">
  <diagram name="Page-1" id="nat82TAkulAwRoUFQ_lC">
    <mxGraphModel dx="2397" dy="2282" grid="1" gridSize="10" guides="1" tooltips="1" connect="1" arrows="1" fold="1" page="1" pageScale="1" pageWidth="827" pageHeight="1169" math="0" shadow="0">
      <root>
        <mxCell id="0" />
        <mxCell id="1" parent="0" />
        <mxCell id="vUDp2O2sqEoPMX06aAVb-5" style="edgeStyle=orthogonalEdgeStyle;rounded=0;orthogonalLoop=1;jettySize=auto;html=1;" parent="1" source="vUDp2O2sqEoPMX06aAVb-1" target="vUDp2O2sqEoPMX06aAVb-4" edge="1">
          <mxGeometry relative="1" as="geometry" />
        </mxCell>
        <mxCell id="vUDp2O2sqEoPMX06aAVb-7" value="1.2 Verify JWT" style="edgeLabel;html=1;align=center;verticalAlign=middle;resizable=0;points=[];" parent="vUDp2O2sqEoPMX06aAVb-5" vertex="1" connectable="0">
          <mxGeometry x="0.0044" relative="1" as="geometry">
            <mxPoint as="offset" />
          </mxGeometry>
        </mxCell>
        <mxCell id="vUDp2O2sqEoPMX06aAVb-1" value="&lt;font color=&quot;#ffff00&quot;&gt;EGAPAY CORE API&lt;/font&gt;" style="aspect=fixed;sketch=0;html=1;dashed=0;whitespace=wrap;verticalLabelPosition=bottom;verticalAlign=top;fillColor=#2875E2;strokeColor=#ffffff;points=[[0.005,0.63,0],[0.1,0.2,0],[0.9,0.2,0],[0.5,0,0],[0.995,0.63,0],[0.72,0.99,0],[0.5,1,0],[0.28,0.99,0]];shape=mxgraph.kubernetes.icon2;prIcon=api" parent="1" vertex="1">
          <mxGeometry x="380" y="40" width="50" height="48" as="geometry" />
        </mxCell>
        <mxCell id="vUDp2O2sqEoPMX06aAVb-10" style="edgeStyle=orthogonalEdgeStyle;rounded=0;orthogonalLoop=1;jettySize=auto;html=1;" parent="1" source="vUDp2O2sqEoPMX06aAVb-4" target="vUDp2O2sqEoPMX06aAVb-9" edge="1">
          <mxGeometry relative="1" as="geometry" />
        </mxCell>
        <mxCell id="vUDp2O2sqEoPMX06aAVb-4" value="&lt;font color=&quot;#ffff00&quot;&gt;AUTH SERVICE&lt;/font&gt;" style="aspect=fixed;sketch=0;html=1;dashed=0;whitespace=wrap;verticalLabelPosition=bottom;verticalAlign=top;fillColor=#2875E2;strokeColor=#ffffff;points=[[0.005,0.63,0],[0.1,0.2,0],[0.9,0.2,0],[0.5,0,0],[0.995,0.63,0],[0.72,0.99,0],[0.5,1,0],[0.28,0.99,0]];shape=mxgraph.kubernetes.icon2;kubernetesLabel=1;prIcon=api" parent="1" vertex="1">
          <mxGeometry x="560" y="40" width="50" height="48" as="geometry" />
        </mxCell>
        <mxCell id="vUDp2O2sqEoPMX06aAVb-6" style="edgeStyle=orthogonalEdgeStyle;rounded=0;orthogonalLoop=1;jettySize=auto;html=1;entryX=0.5;entryY=0;entryDx=0;entryDy=0;entryPerimeter=0;" parent="1" source="vUDp2O2sqEoPMX06aAVb-4" target="vUDp2O2sqEoPMX06aAVb-1" edge="1">
          <mxGeometry relative="1" as="geometry">
            <Array as="points">
              <mxPoint x="585" y="20" />
              <mxPoint x="405" y="20" />
            </Array>
          </mxGeometry>
        </mxCell>
        <mxCell id="vUDp2O2sqEoPMX06aAVb-8" value="1.3 Receives&lt;br&gt;verification response" style="edgeLabel;html=1;align=center;verticalAlign=middle;resizable=0;points=[];" parent="vUDp2O2sqEoPMX06aAVb-6" vertex="1" connectable="0">
          <mxGeometry x="-0.013" y="-1" relative="1" as="geometry">
            <mxPoint as="offset" />
          </mxGeometry>
        </mxCell>
        <mxCell id="vUDp2O2sqEoPMX06aAVb-9" value="TOKEN CACHE" style="image;sketch=0;aspect=fixed;html=1;points=[];align=center;fontSize=12;image=img/lib/mscae/Cache_Redis_Product.svg;" parent="1" vertex="1">
          <mxGeometry x="710" y="51.5" width="29.76" height="25" as="geometry" />
        </mxCell>
        <mxCell id="vUDp2O2sqEoPMX06aAVb-31" style="edgeStyle=orthogonalEdgeStyle;rounded=0;orthogonalLoop=1;jettySize=auto;html=1;entryX=0;entryY=0.5;entryDx=0;entryDy=0;" parent="1" source="vUDp2O2sqEoPMX06aAVb-13" target="vUDp2O2sqEoPMX06aAVb-33" edge="1">
          <mxGeometry relative="1" as="geometry">
            <mxPoint x="590" y="535" as="targetPoint" />
          </mxGeometry>
        </mxCell>
        <mxCell id="vUDp2O2sqEoPMX06aAVb-32" value="1.7 HTTP &lt;br&gt;request / response" style="edgeLabel;html=1;align=center;verticalAlign=middle;resizable=0;points=[];" parent="vUDp2O2sqEoPMX06aAVb-31" vertex="1" connectable="0">
          <mxGeometry x="-0.0045" y="1" relative="1" as="geometry">
            <mxPoint x="-1" y="-1" as="offset" />
          </mxGeometry>
        </mxCell>
        <mxCell id="vUDp2O2sqEoPMX06aAVb-13" value="PAY PARTNER &lt;br&gt;REQUEST CONSUMER&lt;br&gt;(MTN, ATMONEY, TELECEL)" style="aspect=fixed;sketch=0;html=1;dashed=0;whitespace=wrap;verticalLabelPosition=bottom;verticalAlign=top;fillColor=#2875E2;strokeColor=#ffffff;points=[[0.005,0.63,0],[0.1,0.2,0],[0.9,0.2,0],[0.5,0,0],[0.995,0.63,0],[0.72,0.99,0],[0.5,1,0],[0.28,0.99,0]];shape=mxgraph.kubernetes.icon2;kubernetesLabel=1;prIcon=job" parent="1" vertex="1">
          <mxGeometry x="380" y="515" width="50" height="48" as="geometry" />
        </mxCell>
        <mxCell id="vUDp2O2sqEoPMX06aAVb-22" style="edgeStyle=orthogonalEdgeStyle;rounded=0;orthogonalLoop=1;jettySize=auto;html=1;" parent="1" source="vUDp2O2sqEoPMX06aAVb-23" edge="1">
          <mxGeometry relative="1" as="geometry">
            <mxPoint x="-175" y="195" as="targetPoint" />
          </mxGeometry>
        </mxCell>
        <mxCell id="vUDp2O2sqEoPMX06aAVb-18" value="PAY PARTNER&lt;br&gt;CALLBACK API&lt;br&gt;(FOR EACH PAY PARTNER)" style="aspect=fixed;sketch=0;html=1;dashed=0;whitespace=wrap;verticalLabelPosition=bottom;verticalAlign=top;fillColor=#2875E2;strokeColor=#ffffff;points=[[0.005,0.63,0],[0.1,0.2,0],[0.9,0.2,0],[0.5,0,0],[0.995,0.63,0],[0.72,0.99,0],[0.5,1,0],[0.28,0.99,0]];shape=mxgraph.kubernetes.icon2;prIcon=api" parent="1" vertex="1">
          <mxGeometry x="-200" y="3.0000000000000053" width="50" height="48" as="geometry" />
        </mxCell>
        <mxCell id="vUDp2O2sqEoPMX06aAVb-19" value="PAY PARTNER SERVICE" style="image;aspect=fixed;perimeter=ellipsePerimeter;html=1;align=center;shadow=0;dashed=0;spacingTop=3;image=img/lib/active_directory/internet_cloud.svg;" parent="1" vertex="1">
          <mxGeometry x="-184.13" y="-140" width="34.13" height="21.5" as="geometry" />
        </mxCell>
        <mxCell id="vUDp2O2sqEoPMX06aAVb-20" style="edgeStyle=orthogonalEdgeStyle;rounded=0;orthogonalLoop=1;jettySize=auto;html=1;entryX=0.659;entryY=0.417;entryDx=0;entryDy=0;entryPerimeter=0;" parent="1" source="vUDp2O2sqEoPMX06aAVb-19" target="vUDp2O2sqEoPMX06aAVb-18" edge="1">
          <mxGeometry relative="1" as="geometry" />
        </mxCell>
        <mxCell id="vUDp2O2sqEoPMX06aAVb-21" value="1.8 HTTP &lt;br&gt;callback response" style="edgeLabel;html=1;align=center;verticalAlign=middle;resizable=0;points=[];" parent="vUDp2O2sqEoPMX06aAVb-20" vertex="1" connectable="0">
          <mxGeometry x="-0.0855" relative="1" as="geometry">
            <mxPoint as="offset" />
          </mxGeometry>
        </mxCell>
        <mxCell id="vUDp2O2sqEoPMX06aAVb-24" value="" style="edgeStyle=orthogonalEdgeStyle;rounded=0;orthogonalLoop=1;jettySize=auto;html=1;" parent="1" source="vUDp2O2sqEoPMX06aAVb-18" target="vUDp2O2sqEoPMX06aAVb-23" edge="1">
          <mxGeometry relative="1" as="geometry">
            <mxPoint x="-175" y="195" as="targetPoint" />
            <mxPoint x="-175.26" y="51.00000000000001" as="sourcePoint" />
          </mxGeometry>
        </mxCell>
        <mxCell id="q88LjQ23zi61t3ZNse3u-35" value="" style="edgeStyle=orthogonalEdgeStyle;rounded=0;orthogonalLoop=1;jettySize=auto;html=1;" parent="1" source="vUDp2O2sqEoPMX06aAVb-23" target="q88LjQ23zi61t3ZNse3u-34" edge="1">
          <mxGeometry relative="1" as="geometry" />
        </mxCell>
        <mxCell id="q88LjQ23zi61t3ZNse3u-37" style="edgeStyle=orthogonalEdgeStyle;rounded=0;orthogonalLoop=1;jettySize=auto;html=1;" parent="1" source="vUDp2O2sqEoPMX06aAVb-23" target="q88LjQ23zi61t3ZNse3u-36" edge="1">
          <mxGeometry relative="1" as="geometry" />
        </mxCell>
        <mxCell id="q88LjQ23zi61t3ZNse3u-38" value="1.9 Update pending transaction&lt;div&gt;details with final status&lt;/div&gt;" style="edgeLabel;html=1;align=center;verticalAlign=middle;resizable=0;points=[];" parent="q88LjQ23zi61t3ZNse3u-37" vertex="1" connectable="0">
          <mxGeometry x="0.1694" relative="1" as="geometry">
            <mxPoint as="offset" />
          </mxGeometry>
        </mxCell>
        <mxCell id="vUDp2O2sqEoPMX06aAVb-23" value="&lt;font color=&quot;#ffff00&quot;&gt;COMPLETED&lt;/font&gt;&lt;div&gt;&lt;font color=&quot;#ffff00&quot;&gt;COLLECTION CONSUMER&lt;/font&gt;&lt;/div&gt;" style="aspect=fixed;sketch=0;html=1;dashed=0;whitespace=wrap;verticalLabelPosition=bottom;verticalAlign=top;fillColor=#2875E2;strokeColor=#ffffff;points=[[0.005,0.63,0],[0.1,0.2,0],[0.9,0.2,0],[0.5,0,0],[0.995,0.63,0],[0.72,0.99,0],[0.5,1,0],[0.28,0.99,0]];shape=mxgraph.kubernetes.icon2;kubernetesLabel=1;prIcon=job" parent="1" vertex="1">
          <mxGeometry x="-200" y="245" width="50" height="48" as="geometry" />
        </mxCell>
        <mxCell id="vUDp2O2sqEoPMX06aAVb-25" value="&lt;span style=&quot;&quot;&gt;Produces&lt;br&gt;egapay.collection_received&lt;/span&gt;" style="sketch=0;points=[[0,0,0],[0.25,0,0],[0.5,0,0],[0.75,0,0],[1,0,0],[0,1,0],[0.25,1,0],[0.5,1,0],[0.75,1,0],[1,1,0],[0,0.25,0],[0,0.5,0],[0,0.75,0],[1,0.25,0],[1,0.5,0],[1,0.75,0]];outlineConnect=0;fontColor=#FFFFFF;fillColor=#8C4FFF;strokeColor=#ffffff;dashed=0;verticalLabelPosition=bottom;verticalAlign=top;align=center;html=1;fontSize=12;fontStyle=0;aspect=fixed;shape=mxgraph.aws4.resourceIcon;resIcon=mxgraph.aws4.managed_streaming_for_kafka;labelBackgroundColor=default;" parent="1" vertex="1">
          <mxGeometry x="-189" y="145" width="28" height="28" as="geometry" />
        </mxCell>
        <mxCell id="vUDp2O2sqEoPMX06aAVb-33" value="PAY PARTNER SERVICE" style="image;aspect=fixed;perimeter=ellipsePerimeter;html=1;align=center;shadow=0;dashed=0;spacingTop=3;image=img/lib/active_directory/internet_cloud.svg;" parent="1" vertex="1">
          <mxGeometry x="630" y="528.25" width="34.13" height="21.5" as="geometry" />
        </mxCell>
        <mxCell id="q88LjQ23zi61t3ZNse3u-40" style="edgeStyle=orthogonalEdgeStyle;rounded=0;orthogonalLoop=1;jettySize=auto;html=1;" parent="1" source="vUDp2O2sqEoPMX06aAVb-38" target="q88LjQ23zi61t3ZNse3u-11" edge="1">
          <mxGeometry relative="1" as="geometry" />
        </mxCell>
        <mxCell id="vUDp2O2sqEoPMX06aAVb-38" value="&lt;span style=&quot;&quot;&gt;2.0 Produces&lt;br&gt;egapay.collection_completed&lt;/span&gt;" style="sketch=0;points=[[0,0,0],[0.25,0,0],[0.5,0,0],[0.75,0,0],[1,0,0],[0,1,0],[0.25,1,0],[0.5,1,0],[0.75,1,0],[1,1,0],[0,0.25,0],[0,0.5,0],[0,0.75,0],[1,0.25,0],[1,0.5,0],[1,0.75,0]];outlineConnect=0;fontColor=#FFFFFF;fillColor=#8C4FFF;strokeColor=#ffffff;dashed=0;verticalLabelPosition=bottom;verticalAlign=top;align=center;html=1;fontSize=12;fontStyle=0;aspect=fixed;shape=mxgraph.aws4.resourceIcon;resIcon=mxgraph.aws4.managed_streaming_for_kafka;labelBackgroundColor=default;" parent="1" vertex="1">
          <mxGeometry x="-189" y="381.75" width="28" height="28" as="geometry" />
        </mxCell>
        <mxCell id="q88LjQ23zi61t3ZNse3u-5" value="CLIENT&lt;br&gt;(MERCHANT/CUSTOMER/DEVELOPER API)" style="image;points=[];aspect=fixed;html=1;align=center;shadow=0;dashed=0;image=img/lib/allied_telesis/buildings/Medium_Business_Building.svg;" parent="1" vertex="1">
          <mxGeometry x="-467.81999999999994" y="501.75" width="37.33" height="48" as="geometry" />
        </mxCell>
        <mxCell id="q88LjQ23zi61t3ZNse3u-6" style="edgeStyle=orthogonalEdgeStyle;rounded=0;orthogonalLoop=1;jettySize=auto;html=1;entryX=1.13;entryY=0.503;entryDx=0;entryDy=0;entryPerimeter=0;" parent="1" edge="1">
          <mxGeometry relative="1" as="geometry">
            <mxPoint x="-200.00000000000006" y="530.376296296296" as="sourcePoint" />
            <mxPoint x="-427.8171" y="530.4739999999997" as="targetPoint" />
          </mxGeometry>
        </mxCell>
        <mxCell id="q88LjQ23zi61t3ZNse3u-7" value="2.0.1 Send callback&lt;div&gt;message to client&lt;/div&gt;&lt;div&gt;via HTTP&lt;/div&gt;" style="edgeLabel;html=1;align=center;verticalAlign=middle;resizable=0;points=[];" parent="q88LjQ23zi61t3ZNse3u-6" vertex="1" connectable="0">
          <mxGeometry x="-0.0902" y="-1" relative="1" as="geometry">
            <mxPoint x="-2" as="offset" />
          </mxGeometry>
        </mxCell>
        <mxCell id="q88LjQ23zi61t3ZNse3u-8" value="CLIENT&lt;br&gt;(MERCHANT/CUSTOMER/DEVELOPER API)" style="image;points=[];aspect=fixed;html=1;align=center;shadow=0;dashed=0;image=img/lib/allied_telesis/buildings/Medium_Business_Building.svg;" parent="1" vertex="1">
          <mxGeometry x="381.66999999999996" y="-190" width="37.33" height="48" as="geometry" />
        </mxCell>
        <mxCell id="q88LjQ23zi61t3ZNse3u-9" style="edgeStyle=orthogonalEdgeStyle;rounded=0;orthogonalLoop=1;jettySize=auto;html=1;entryX=0.005;entryY=0.63;entryDx=0;entryDy=0;entryPerimeter=0;" parent="1" source="q88LjQ23zi61t3ZNse3u-8" target="vUDp2O2sqEoPMX06aAVb-1" edge="1">
          <mxGeometry relative="1" as="geometry">
            <Array as="points">
              <mxPoint x="360" y="-166" />
              <mxPoint x="360" y="70" />
            </Array>
          </mxGeometry>
        </mxCell>
        <mxCell id="q88LjQ23zi61t3ZNse3u-10" value="1.1 Sends initial request&lt;div&gt;for (collection)&lt;/div&gt;&lt;div&gt;transaction&lt;/div&gt;" style="edgeLabel;html=1;align=center;verticalAlign=middle;resizable=0;points=[];" parent="q88LjQ23zi61t3ZNse3u-9" vertex="1" connectable="0">
          <mxGeometry x="0.0201" relative="1" as="geometry">
            <mxPoint as="offset" />
          </mxGeometry>
        </mxCell>
        <mxCell id="q88LjQ23zi61t3ZNse3u-39" value="2.0.1 Bulk write&lt;div&gt;completed transaction&lt;/div&gt;" style="edgeStyle=orthogonalEdgeStyle;rounded=0;orthogonalLoop=1;jettySize=auto;html=1;" parent="1" source="q88LjQ23zi61t3ZNse3u-11" target="q88LjQ23zi61t3ZNse3u-12" edge="1">
          <mxGeometry relative="1" as="geometry" />
        </mxCell>
        <mxCell id="q88LjQ23zi61t3ZNse3u-11" value="&lt;font color=&quot;#ffff00&quot;&gt;MSSQL CONSUMER&lt;/font&gt;" style="aspect=fixed;sketch=0;html=1;dashed=0;whitespace=wrap;verticalLabelPosition=bottom;verticalAlign=top;fillColor=#2875E2;strokeColor=#ffffff;points=[[0.005,0.63,0],[0.1,0.2,0],[0.9,0.2,0],[0.5,0,0],[0.995,0.63,0],[0.72,0.99,0],[0.5,1,0],[0.28,0.99,0]];shape=mxgraph.kubernetes.icon2;kubernetesLabel=1;prIcon=job" parent="1" vertex="1">
          <mxGeometry x="-430.49" y="371.75" width="50" height="48" as="geometry" />
        </mxCell>
        <mxCell id="q88LjQ23zi61t3ZNse3u-12" value="" style="image;aspect=fixed;html=1;points=[];align=center;fontSize=12;image=img/lib/azure2/databases/SQL_Server.svg;" parent="1" vertex="1">
          <mxGeometry x="-680" y="371.75" width="46.5" height="46.5" as="geometry" />
        </mxCell>
        <mxCell id="q88LjQ23zi61t3ZNse3u-13" value="TRANSACTION&lt;div&gt;CACHE&lt;/div&gt;" style="image;sketch=0;aspect=fixed;html=1;points=[];align=center;fontSize=12;image=img/lib/mscae/Cache_Redis_Product.svg;" parent="1" vertex="1">
          <mxGeometry x="600" y="250" width="33.33" height="28" as="geometry" />
        </mxCell>
        <mxCell id="q88LjQ23zi61t3ZNse3u-17" value="" style="edgeStyle=orthogonalEdgeStyle;rounded=0;orthogonalLoop=1;jettySize=auto;html=1;" parent="1" source="vUDp2O2sqEoPMX06aAVb-12" target="q88LjQ23zi61t3ZNse3u-14" edge="1">
          <mxGeometry relative="1" as="geometry">
            <mxPoint x="405" y="470" as="targetPoint" />
            <mxPoint x="405" y="88" as="sourcePoint" />
          </mxGeometry>
        </mxCell>
        <mxCell id="q88LjQ23zi61t3ZNse3u-23" style="edgeStyle=orthogonalEdgeStyle;rounded=0;orthogonalLoop=1;jettySize=auto;html=1;" parent="1" source="q88LjQ23zi61t3ZNse3u-14" edge="1">
          <mxGeometry relative="1" as="geometry">
            <mxPoint x="405" y="360" as="targetPoint" />
          </mxGeometry>
        </mxCell>
        <mxCell id="q88LjQ23zi61t3ZNse3u-14" value="&lt;font color=&quot;#ffff00&quot;&gt;PAY PARTNER&lt;br&gt;ROUTER CONSUMER&lt;/font&gt;" style="aspect=fixed;sketch=0;html=1;dashed=0;whitespace=wrap;verticalLabelPosition=bottom;verticalAlign=top;fillColor=#2875E2;strokeColor=#ffffff;points=[[0.005,0.63,0],[0.1,0.2,0],[0.9,0.2,0],[0.5,0,0],[0.995,0.63,0],[0.72,0.99,0],[0.5,1,0],[0.28,0.99,0]];shape=mxgraph.kubernetes.icon2;kubernetesLabel=1;prIcon=job" parent="1" vertex="1">
          <mxGeometry x="380" y="230" width="50" height="48" as="geometry" />
        </mxCell>
        <mxCell id="q88LjQ23zi61t3ZNse3u-19" value="" style="edgeStyle=orthogonalEdgeStyle;rounded=0;orthogonalLoop=1;jettySize=auto;html=1;" parent="1" source="vUDp2O2sqEoPMX06aAVb-1" target="vUDp2O2sqEoPMX06aAVb-12" edge="1">
          <mxGeometry relative="1" as="geometry">
            <mxPoint x="405" y="230" as="targetPoint" />
            <mxPoint x="405" y="88" as="sourcePoint" />
          </mxGeometry>
        </mxCell>
        <mxCell id="vUDp2O2sqEoPMX06aAVb-12" value="&lt;span style=&quot;&quot;&gt;1.4 Produces&lt;br&gt;egapay.collection_request&lt;/span&gt;" style="sketch=0;points=[[0,0,0],[0.25,0,0],[0.5,0,0],[0.75,0,0],[1,0,0],[0,1,0],[0.25,1,0],[0.5,1,0],[0.75,1,0],[1,1,0],[0,0.25,0],[0,0.5,0],[0,0.75,0],[1,0.25,0],[1,0.5,0],[1,0.75,0]];outlineConnect=0;fontColor=#FFFFFF;fillColor=#8C4FFF;strokeColor=#ffffff;dashed=0;verticalLabelPosition=bottom;verticalAlign=top;align=center;html=1;fontSize=12;fontStyle=0;aspect=fixed;shape=mxgraph.aws4.resourceIcon;resIcon=mxgraph.aws4.managed_streaming_for_kafka;labelBackgroundColor=default;" parent="1" vertex="1">
          <mxGeometry x="391" y="140" width="28" height="28" as="geometry" />
        </mxCell>
        <mxCell id="q88LjQ23zi61t3ZNse3u-21" style="edgeStyle=orthogonalEdgeStyle;rounded=0;orthogonalLoop=1;jettySize=auto;html=1;entryX=0;entryY=0.429;entryDx=0;entryDy=0;entryPerimeter=0;" parent="1" source="q88LjQ23zi61t3ZNse3u-14" target="q88LjQ23zi61t3ZNse3u-13" edge="1">
          <mxGeometry relative="1" as="geometry" />
        </mxCell>
        <mxCell id="q88LjQ23zi61t3ZNse3u-22" value="1.5 Insert pending&lt;div&gt;&amp;nbsp;request&lt;/div&gt;" style="edgeLabel;html=1;align=center;verticalAlign=middle;resizable=0;points=[];" parent="q88LjQ23zi61t3ZNse3u-21" vertex="1" connectable="0">
          <mxGeometry x="-0.0922" y="2" relative="1" as="geometry">
            <mxPoint as="offset" />
          </mxGeometry>
        </mxCell>
        <mxCell id="q88LjQ23zi61t3ZNse3u-24" value="&lt;span style=&quot;&quot;&gt;1.6 Produces&lt;br&gt;egapay.collection_request_({&lt;/span&gt;pp_route&lt;span style=&quot;&quot;&gt;})&lt;/span&gt;" style="sketch=0;points=[[0,0,0],[0.25,0,0],[0.5,0,0],[0.75,0,0],[1,0,0],[0,1,0],[0.25,1,0],[0.5,1,0],[0.75,1,0],[1,1,0],[0,0.25,0],[0,0.5,0],[0,0.75,0],[1,0.25,0],[1,0.5,0],[1,0.75,0]];outlineConnect=0;fontColor=#FFFFFF;fillColor=#8C4FFF;strokeColor=#ffffff;dashed=0;verticalLabelPosition=bottom;verticalAlign=top;align=center;html=1;fontSize=12;fontStyle=0;aspect=fixed;shape=mxgraph.aws4.resourceIcon;resIcon=mxgraph.aws4.managed_streaming_for_kafka;labelBackgroundColor=default;" parent="1" vertex="1">
          <mxGeometry x="391" y="360" width="28" height="28" as="geometry" />
        </mxCell>
        <mxCell id="q88LjQ23zi61t3ZNse3u-27" style="edgeStyle=orthogonalEdgeStyle;rounded=0;orthogonalLoop=1;jettySize=auto;html=1;entryX=0.5;entryY=0;entryDx=0;entryDy=0;entryPerimeter=0;" parent="1" source="q88LjQ23zi61t3ZNse3u-24" target="vUDp2O2sqEoPMX06aAVb-13" edge="1">
          <mxGeometry relative="1" as="geometry" />
        </mxCell>
        <mxCell id="q88LjQ23zi61t3ZNse3u-34" value="&lt;font color=&quot;#ffff00&quot;&gt;CLIENT&lt;br&gt;CALLBACK NOTIFIER&lt;/font&gt;" style="aspect=fixed;sketch=0;html=1;dashed=0;whitespace=wrap;verticalLabelPosition=bottom;verticalAlign=top;fillColor=#2875E2;strokeColor=#ffffff;points=[[0.005,0.63,0],[0.1,0.2,0],[0.9,0.2,0],[0.5,0,0],[0.995,0.63,0],[0.72,0.99,0],[0.5,1,0],[0.28,0.99,0]];shape=mxgraph.kubernetes.icon2;kubernetesLabel=1;prIcon=job" parent="1" vertex="1">
          <mxGeometry x="-200" y="501.75" width="50" height="48" as="geometry" />
        </mxCell>
        <mxCell id="q88LjQ23zi61t3ZNse3u-36" value="TRANSACTION&lt;br&gt;CACHE" style="image;sketch=0;aspect=fixed;html=1;points=[];align=center;fontSize=12;image=img/lib/mscae/Cache_Redis_Product.svg;" parent="1" vertex="1">
          <mxGeometry x="100" y="254.5" width="34.52" height="29" as="geometry" />
        </mxCell>
        <mxCell id="q88LjQ23zi61t3ZNse3u-42" value="B. COLLECTION CALLBACK FLOW" style="text;html=1;strokeColor=#d6b656;fillColor=#000000;align=center;verticalAlign=middle;whiteSpace=wrap;overflow=hidden;fontColor=#FFFFFF;" parent="1" vertex="1">
          <mxGeometry x="-297.07" y="-230" width="260" height="50" as="geometry" />
        </mxCell>
        <mxCell id="q88LjQ23zi61t3ZNse3u-43" value="A. COLLECTION FLOW" style="text;html=1;strokeColor=#d6b656;fillColor=#000000;align=center;verticalAlign=middle;whiteSpace=wrap;overflow=hidden;fontColor=#FFFFFF;" parent="1" vertex="1">
          <mxGeometry x="275.00000000000006" y="-270" width="260" height="50" as="geometry" />
        </mxCell>
        <mxCell id="e2mfzfb8jbQLuN6kquIz-2" value="C1. TRANSACTION STATUS CHECK FLOW" style="text;html=1;strokeColor=#d6b656;fillColor=#000000;align=center;verticalAlign=middle;whiteSpace=wrap;overflow=hidden;fontColor=#FFFFFF;" parent="1" vertex="1">
          <mxGeometry x="1150" y="-270" width="260" height="50" as="geometry" />
        </mxCell>
        <mxCell id="e2mfzfb8jbQLuN6kquIz-4" style="edgeStyle=orthogonalEdgeStyle;rounded=0;orthogonalLoop=1;jettySize=auto;html=1;" parent="1" source="e2mfzfb8jbQLuN6kquIz-6" target="e2mfzfb8jbQLuN6kquIz-8" edge="1">
          <mxGeometry relative="1" as="geometry" />
        </mxCell>
        <mxCell id="e2mfzfb8jbQLuN6kquIz-5" value="1.2 Verify JWT" style="edgeLabel;html=1;align=center;verticalAlign=middle;resizable=0;points=[];" parent="e2mfzfb8jbQLuN6kquIz-4" vertex="1" connectable="0">
          <mxGeometry x="0.0044" relative="1" as="geometry">
            <mxPoint as="offset" />
          </mxGeometry>
        </mxCell>
        <mxCell id="e2mfzfb8jbQLuN6kquIz-6" value="EGAPAY CORE API" style="aspect=fixed;sketch=0;html=1;dashed=0;whitespace=wrap;verticalLabelPosition=bottom;verticalAlign=top;fillColor=#2875E2;strokeColor=#ffffff;points=[[0.005,0.63,0],[0.1,0.2,0],[0.9,0.2,0],[0.5,0,0],[0.995,0.63,0],[0.72,0.99,0],[0.5,1,0],[0.28,0.99,0]];shape=mxgraph.kubernetes.icon2;prIcon=api" parent="1" vertex="1">
          <mxGeometry x="1200" y="26" width="50" height="48" as="geometry" />
        </mxCell>
        <mxCell id="e2mfzfb8jbQLuN6kquIz-7" style="edgeStyle=orthogonalEdgeStyle;rounded=0;orthogonalLoop=1;jettySize=auto;html=1;" parent="1" source="e2mfzfb8jbQLuN6kquIz-8" target="e2mfzfb8jbQLuN6kquIz-11" edge="1">
          <mxGeometry relative="1" as="geometry" />
        </mxCell>
        <mxCell id="e2mfzfb8jbQLuN6kquIz-8" value="AUTH SERVICE" style="aspect=fixed;sketch=0;html=1;dashed=0;whitespace=wrap;verticalLabelPosition=bottom;verticalAlign=top;fillColor=#2875E2;strokeColor=#ffffff;points=[[0.005,0.63,0],[0.1,0.2,0],[0.9,0.2,0],[0.5,0,0],[0.995,0.63,0],[0.72,0.99,0],[0.5,1,0],[0.28,0.99,0]];shape=mxgraph.kubernetes.icon2;kubernetesLabel=1;prIcon=api" parent="1" vertex="1">
          <mxGeometry x="1380" y="26" width="50" height="48" as="geometry" />
        </mxCell>
        <mxCell id="e2mfzfb8jbQLuN6kquIz-9" style="edgeStyle=orthogonalEdgeStyle;rounded=0;orthogonalLoop=1;jettySize=auto;html=1;entryX=0.5;entryY=0;entryDx=0;entryDy=0;entryPerimeter=0;" parent="1" source="e2mfzfb8jbQLuN6kquIz-8" target="e2mfzfb8jbQLuN6kquIz-6" edge="1">
          <mxGeometry relative="1" as="geometry">
            <Array as="points">
              <mxPoint x="1405" y="6" />
              <mxPoint x="1225" y="6" />
            </Array>
          </mxGeometry>
        </mxCell>
        <mxCell id="e2mfzfb8jbQLuN6kquIz-10" value="1.3 Receives&lt;br&gt;verification response" style="edgeLabel;html=1;align=center;verticalAlign=middle;resizable=0;points=[];" parent="e2mfzfb8jbQLuN6kquIz-9" vertex="1" connectable="0">
          <mxGeometry x="-0.013" y="-1" relative="1" as="geometry">
            <mxPoint as="offset" />
          </mxGeometry>
        </mxCell>
        <mxCell id="e2mfzfb8jbQLuN6kquIz-11" value="TOKEN CACHE" style="image;sketch=0;aspect=fixed;html=1;points=[];align=center;fontSize=12;image=img/lib/mscae/Cache_Redis_Product.svg;" parent="1" vertex="1">
          <mxGeometry x="1530" y="37.5" width="29.76" height="25" as="geometry" />
        </mxCell>
        <mxCell id="e2mfzfb8jbQLuN6kquIz-12" style="edgeStyle=orthogonalEdgeStyle;rounded=0;orthogonalLoop=1;jettySize=auto;html=1;entryX=0.005;entryY=0.63;entryDx=0;entryDy=0;entryPerimeter=0;" parent="1" target="e2mfzfb8jbQLuN6kquIz-6" edge="1">
          <mxGeometry relative="1" as="geometry">
            <Array as="points">
              <mxPoint x="1180" y="-180" />
              <mxPoint x="1180" y="56" />
            </Array>
            <mxPoint x="1202" y="-180" as="sourcePoint" />
          </mxGeometry>
        </mxCell>
        <mxCell id="e2mfzfb8jbQLuN6kquIz-13" value="1.1 Sends request&lt;div&gt;for transaction&lt;/div&gt;&lt;div&gt;status check&lt;/div&gt;" style="edgeLabel;html=1;align=center;verticalAlign=middle;resizable=0;points=[];" parent="e2mfzfb8jbQLuN6kquIz-12" vertex="1" connectable="0">
          <mxGeometry x="0.0201" relative="1" as="geometry">
            <mxPoint as="offset" />
          </mxGeometry>
        </mxCell>
        <mxCell id="e2mfzfb8jbQLuN6kquIz-14" value="CLIENT&lt;br&gt;(MERCHANT/CUSTOMER/DEVELOPER API)" style="image;points=[];aspect=fixed;html=1;align=center;shadow=0;dashed=0;image=img/lib/allied_telesis/buildings/Medium_Business_Building.svg;" parent="1" vertex="1">
          <mxGeometry x="1203" y="-200" width="37.33" height="48" as="geometry" />
        </mxCell>
        <mxCell id="e2mfzfb8jbQLuN6kquIz-22" value="1.4 Get transaction&lt;div&gt;status&lt;/div&gt;" style="edgeStyle=orthogonalEdgeStyle;rounded=0;orthogonalLoop=1;jettySize=auto;html=1;entryX=0.5;entryY=0.107;entryDx=0;entryDy=0;entryPerimeter=0;" parent="1" source="e2mfzfb8jbQLuN6kquIz-6" target="e2mfzfb8jbQLuN6kquIz-24" edge="1">
          <mxGeometry relative="1" as="geometry">
            <mxPoint x="1225" y="160" as="targetPoint" />
            <mxPoint x="1225" y="74" as="sourcePoint" />
          </mxGeometry>
        </mxCell>
        <mxCell id="e2mfzfb8jbQLuN6kquIz-27" value="" style="edgeStyle=orthogonalEdgeStyle;rounded=0;orthogonalLoop=1;jettySize=auto;html=1;" parent="1" source="e2mfzfb8jbQLuN6kquIz-24" target="e2mfzfb8jbQLuN6kquIz-26" edge="1">
          <mxGeometry relative="1" as="geometry" />
        </mxCell>
        <mxCell id="e2mfzfb8jbQLuN6kquIz-24" value="TRANSACTION&lt;div&gt;CACHE&lt;/div&gt;" style="image;sketch=0;aspect=fixed;html=1;points=[];align=center;fontSize=12;image=img/lib/mscae/Cache_Redis_Product.svg;" parent="1" vertex="1">
          <mxGeometry x="1208.33" y="217" width="33.33" height="28" as="geometry" />
        </mxCell>
        <mxCell id="e2mfzfb8jbQLuN6kquIz-25" value="" style="image;aspect=fixed;html=1;points=[];align=center;fontSize=12;image=img/lib/azure2/databases/SQL_Server.svg;" parent="1" vertex="1">
          <mxGeometry x="968" y="355.5" width="46.5" height="46.5" as="geometry" />
        </mxCell>
        <mxCell id="e2mfzfb8jbQLuN6kquIz-26" value="Does data exist?" style="rhombus;whiteSpace=wrap;html=1;verticalAlign=top;labelBackgroundColor=default;sketch=0;" parent="1" vertex="1">
          <mxGeometry x="1184.995" y="339.75" width="80" height="80" as="geometry" />
        </mxCell>
        <mxCell id="e2mfzfb8jbQLuN6kquIz-29" style="edgeStyle=orthogonalEdgeStyle;rounded=0;orthogonalLoop=1;jettySize=auto;html=1;entryX=1.016;entryY=0.544;entryDx=0;entryDy=0;entryPerimeter=0;" parent="1" source="e2mfzfb8jbQLuN6kquIz-26" target="e2mfzfb8jbQLuN6kquIz-25" edge="1">
          <mxGeometry relative="1" as="geometry" />
        </mxCell>
        <mxCell id="e2mfzfb8jbQLuN6kquIz-30" value="No, get data from DB" style="edgeLabel;html=1;align=center;verticalAlign=middle;resizable=0;points=[];" parent="e2mfzfb8jbQLuN6kquIz-29" vertex="1" connectable="0">
          <mxGeometry x="0.0816" y="-1" relative="1" as="geometry">
            <mxPoint as="offset" />
          </mxGeometry>
        </mxCell>
        <mxCell id="e2mfzfb8jbQLuN6kquIz-32" style="edgeStyle=orthogonalEdgeStyle;rounded=0;orthogonalLoop=1;jettySize=auto;html=1;entryX=0.995;entryY=0.63;entryDx=0;entryDy=0;entryPerimeter=0;" parent="1" source="e2mfzfb8jbQLuN6kquIz-26" target="e2mfzfb8jbQLuN6kquIz-6" edge="1">
          <mxGeometry relative="1" as="geometry">
            <Array as="points">
              <mxPoint x="1330" y="380" />
              <mxPoint x="1330" y="56" />
            </Array>
          </mxGeometry>
        </mxCell>
        <mxCell id="e2mfzfb8jbQLuN6kquIz-33" value="Yes, send data to&amp;nbsp;&lt;div&gt;calling API&lt;/div&gt;" style="edgeLabel;html=1;align=center;verticalAlign=middle;resizable=0;points=[];" parent="e2mfzfb8jbQLuN6kquIz-32" vertex="1" connectable="0">
          <mxGeometry x="-0.4257" relative="1" as="geometry">
            <mxPoint as="offset" />
          </mxGeometry>
        </mxCell>
        <mxCell id="e2mfzfb8jbQLuN6kquIz-34" style="edgeStyle=orthogonalEdgeStyle;rounded=0;orthogonalLoop=1;jettySize=auto;html=1;entryX=0.005;entryY=0.63;entryDx=0;entryDy=0;entryPerimeter=0;" parent="1" source="e2mfzfb8jbQLuN6kquIz-25" target="e2mfzfb8jbQLuN6kquIz-6" edge="1">
          <mxGeometry relative="1" as="geometry" />
        </mxCell>
        <mxCell id="e2mfzfb8jbQLuN6kquIz-35" value="Yes, send data to&amp;nbsp;&lt;div&gt;calling API&lt;/div&gt;" style="edgeLabel;html=1;align=center;verticalAlign=middle;resizable=0;points=[];" parent="1" vertex="1" connectable="0">
          <mxGeometry x="1110" y="292.99617647058886" as="geometry" />
        </mxCell>
        <mxCell id="e2mfzfb8jbQLuN6kquIz-36" value="C2. STATUS CHECK BACKGROUND SERVICE FLOW" style="text;html=1;strokeColor=#d6b656;fillColor=#000000;align=center;verticalAlign=middle;whiteSpace=wrap;overflow=hidden;fontColor=#FFFFFF;" parent="1" vertex="1">
          <mxGeometry x="1110" y="501.75" width="260" height="50" as="geometry" />
        </mxCell>
        <mxCell id="e2mfzfb8jbQLuN6kquIz-44" style="edgeStyle=orthogonalEdgeStyle;rounded=0;orthogonalLoop=1;jettySize=auto;html=1;" parent="1" source="e2mfzfb8jbQLuN6kquIz-37" edge="1">
          <mxGeometry relative="1" as="geometry">
            <mxPoint x="1430" y="634" as="targetPoint" />
          </mxGeometry>
        </mxCell>
        <mxCell id="e2mfzfb8jbQLuN6kquIz-46" style="edgeStyle=orthogonalEdgeStyle;rounded=0;orthogonalLoop=1;jettySize=auto;html=1;" parent="1" source="e2mfzfb8jbQLuN6kquIz-37" edge="1">
          <mxGeometry relative="1" as="geometry">
            <mxPoint x="1217" y="820" as="targetPoint" />
          </mxGeometry>
        </mxCell>
        <mxCell id="e2mfzfb8jbQLuN6kquIz-49" value="1.3 Concurrent requests&lt;div&gt;to check transactions statuses&lt;/div&gt;" style="edgeLabel;html=1;align=center;verticalAlign=middle;resizable=0;points=[];" parent="e2mfzfb8jbQLuN6kquIz-46" vertex="1" connectable="0">
          <mxGeometry x="0.1179" relative="1" as="geometry">
            <mxPoint as="offset" />
          </mxGeometry>
        </mxCell>
        <mxCell id="e2mfzfb8jbQLuN6kquIz-37" value="PAY PARTNER&amp;nbsp;&lt;div&gt;STATUS CHECK CONSUMER&lt;/div&gt;" style="aspect=fixed;sketch=0;html=1;dashed=0;whitespace=wrap;verticalLabelPosition=bottom;verticalAlign=top;fillColor=#2875E2;strokeColor=#ffffff;points=[[0.005,0.63,0],[0.1,0.2,0],[0.9,0.2,0],[0.5,0,0],[0.995,0.63,0],[0.72,0.99,0],[0.5,1,0],[0.28,0.99,0]];shape=mxgraph.kubernetes.icon2;kubernetesLabel=1;prIcon=job" parent="1" vertex="1">
          <mxGeometry x="1192" y="610" width="50" height="48" as="geometry" />
        </mxCell>
        <mxCell id="e2mfzfb8jbQLuN6kquIz-38" value="" style="editableCssRules=.*;html=1;shape=image;verticalLabelPosition=bottom;labelBackgroundColor=#ffffff;verticalAlign=top;aspect=fixed;imageAspect=0;image=data:image/svg+xml,PHN2ZyB4bWxucz0iaHR0cDovL3d3dy53My5vcmcvMjAwMC9zdmciIHhtbG5zOnY9Imh0dHBzOi8vdmVjdGEuaW8vbmFubyIgd2lkdGg9IjM2MC4zMDM3NjY4NjA4MzYzIiBoZWlnaHQ9IjM3OC4wNTExNTgwNzc0MDg4IiB2aWV3Qm94PSItMC4wMDAxNjI0MjExNDM2MTM3NTU3IC0wLjAwMDEwMDAwNTk0OTIwNzExNTkyIDk1LjMzMDI2MTIzMDQ2ODc1IDEwMC4wMjYxMDAxNTg2OTE0Ij4mI3hhOzxzdHlsZSB0eXBlPSJ0ZXh0L2NzcyI+JiN4YTsJLnN0MHtmaWxsOiM0Mjg1ZjQ7fSYjeGE7CS5zdDF7ZmlsbDojYWVjYmZhO30mI3hhOwkuc3Qye2ZpbGw6IzY2OWRmNjt9JiN4YTs8L3N0eWxlPiYjeGE7CTxwYXRoIGNsYXNzPSJzdDAiIGQ9Ik03OS45NzEgNzcuNzE1bC03LjM1OSA3LjQ4OCA4LjYzOSA4LjQ5IDcuMzU5LTcuNDg4em0tNjUuMDk2LjA2MWwtOC42NDEgOC40OTIgNy4zNjEgNy40ODggOC42MzktOC40OXoiLz4mI3hhOwk8cGF0aCBjbGFzcz0ic3QxIiBkPSJNNzkuNTUzLjIyMWE1LjI1IDUuMjUgMCAwIDAtMy42NiA4Ljk4NEw4Ni4zODkgMTkuNThhNS4yNSA1LjI1IDAgMCAwIDguOTQxLTMuNzY1IDUuMjUgNS4yNSAwIDAgMC0xLjU2LTMuNzA0TDgzLjI3NSAxLjczOEE1LjI1IDUuMjUgMCAwIDAgNzkuNTUzLjIyMXpNMTUuOTE2IDBhNS4yNSA1LjI1IDAgMCAwLTMuNzIzIDEuNTE2TDEuNjk5IDExLjg5MWE1LjI1IDUuMjUgMCAwIDAtLjA0MyA3LjQyNCA1LjI1IDUuMjUgMCAwIDAgNy40MjQuMDQzTDE5LjU3NiA4Ljk4MkE1LjI1IDUuMjUgMCAwIDAgMTUuOTE2IDB6Ii8+JiN4YTsJPHBhdGggY2xhc3M9InN0MCIgZD0iTTQ4LjEzOCAyNi4yNGMxMy4zNDcgMCAyNS40MzIgMTEuMTM2IDI1LjMxIDI2LjQ4MSAwIDE1LjExLTEyLjI2NyAyNS42NzMtMjUuMTg5IDI1LjY3My0xMS4xNDkgMC0xOC4zMTctNS4xNzEtMjEuOTYtMTAuNzM4bDIxLjgzOS0xNS4wOTd6Ii8+JiN4YTsJPHBhdGggY2xhc3M9InN0MiIgZD0iTTgxLjI1IDkzLjY5M2w0LjY2NCA0LjU4NmE1LjI1IDUuMjUgMCAxIDAgNy4zNjEtNy40OWwtNC42NjYtNC41ODR6TTYuMjM0IDg2LjI2OEwxLjU3IDkwLjg1MWE1LjI1IDUuMjUgMCAwIDAtLjA2NSA3LjQyNCA1LjI1IDUuMjUgMCAwIDAgNy40MjQuMDY0bDQuNjY2LTQuNTg0ek00Ny4zNzEgNS41NzhDMjEuMzQ5IDUuNTc4LjE0NiAyNi43NzkuMTQ2IDUyLjgwMXMyMS4yMDMgNDcuMjI1IDQ3LjIyNSA0Ny4yMjUgNDcuMjI1LTIxLjIwMyA0Ny4yMjUtNDcuMjI1UzczLjM5MyA1LjU3OCA0Ny4zNzEgNS41Nzh6bTAgMTBhMzcuMTUgMzcuMTUgMCAwIDEgMzcuMjI1IDM3LjIyM2MwIDIwLjYxNy0xNi42MDcgMzcuMjI1LTM3LjIyNSAzNy4yMjVTMTAuMTQ2IDczLjQxOCAxMC4xNDYgNTIuODAxYTM3LjE1IDM3LjE1IDAgMCAxIDM3LjIyNS0zNy4yMjN6Ii8+JiN4YTs8L3N2Zz4=;" parent="1" vertex="1">
          <mxGeometry x="899.9999999999999" y="620" width="38" height="40" as="geometry" />
        </mxCell>
        <mxCell id="e2mfzfb8jbQLuN6kquIz-39" style="edgeStyle=orthogonalEdgeStyle;rounded=0;orthogonalLoop=1;jettySize=auto;html=1;entryX=0.005;entryY=0.63;entryDx=0;entryDy=0;entryPerimeter=0;" parent="1" source="e2mfzfb8jbQLuN6kquIz-38" target="e2mfzfb8jbQLuN6kquIz-37" edge="1">
          <mxGeometry relative="1" as="geometry" />
        </mxCell>
        <mxCell id="e2mfzfb8jbQLuN6kquIz-40" value="1.1 Triggers every 5 minutes" style="edgeLabel;html=1;align=center;verticalAlign=middle;resizable=0;points=[];" parent="e2mfzfb8jbQLuN6kquIz-39" vertex="1" connectable="0">
          <mxGeometry x="0.099" relative="1" as="geometry">
            <mxPoint as="offset" />
          </mxGeometry>
        </mxCell>
        <mxCell id="e2mfzfb8jbQLuN6kquIz-42" value="TRANSACTION&lt;div&gt;CACHE&lt;/div&gt;" style="image;sketch=0;aspect=fixed;html=1;points=[];align=center;fontSize=12;image=img/lib/mscae/Cache_Redis_Product.svg;" parent="1" vertex="1">
          <mxGeometry x="1430" y="620" width="33.33" height="28" as="geometry" />
        </mxCell>
        <mxCell id="e2mfzfb8jbQLuN6kquIz-45" value="1.2 Lookup&amp;nbsp;&lt;div&gt;pending transactions&lt;/div&gt;" style="edgeLabel;html=1;align=center;verticalAlign=middle;resizable=0;points=[];" parent="1" vertex="1" connectable="0">
          <mxGeometry x="1329.9986" y="634.0026315789476" as="geometry" />
        </mxCell>
        <mxCell id="e2mfzfb8jbQLuN6kquIz-50" style="edgeStyle=orthogonalEdgeStyle;rounded=0;orthogonalLoop=1;jettySize=auto;html=1;" parent="1" source="e2mfzfb8jbQLuN6kquIz-51" edge="1">
          <mxGeometry relative="1" as="geometry">
            <mxPoint x="1220.0649999999996" y="1050" as="targetPoint" />
          </mxGeometry>
        </mxCell>
        <mxCell id="e2mfzfb8jbQLuN6kquIz-47" value="PAY PARTNER SERVICE" style="image;aspect=fixed;perimeter=ellipsePerimeter;html=1;align=center;shadow=0;dashed=0;spacingTop=3;image=img/lib/active_directory/internet_cloud.svg;" parent="1" vertex="1">
          <mxGeometry x="1203" y="820" width="34.13" height="21.5" as="geometry" />
        </mxCell>
        <mxCell id="e2mfzfb8jbQLuN6kquIz-52" value="" style="edgeStyle=orthogonalEdgeStyle;rounded=0;orthogonalLoop=1;jettySize=auto;html=1;" parent="1" source="e2mfzfb8jbQLuN6kquIz-47" target="e2mfzfb8jbQLuN6kquIz-51" edge="1">
          <mxGeometry relative="1" as="geometry">
            <mxPoint x="1220.0649999999996" y="1050" as="targetPoint" />
            <mxPoint x="1220" y="842" as="sourcePoint" />
          </mxGeometry>
        </mxCell>
        <mxCell id="e2mfzfb8jbQLuN6kquIz-51" value="1.4 Produces&lt;br&gt;egapay.collection_received" style="sketch=0;points=[[0,0,0],[0.25,0,0],[0.5,0,0],[0.75,0,0],[1,0,0],[0,1,0],[0.25,1,0],[0.5,1,0],[0.75,1,0],[1,1,0],[0,0.25,0],[0,0.5,0],[0,0.75,0],[1,0.25,0],[1,0.5,0],[1,0.75,0]];outlineConnect=0;fontColor=#FFFFFF;fillColor=#8C4FFF;strokeColor=#ffffff;dashed=0;verticalLabelPosition=bottom;verticalAlign=top;align=center;html=1;fontSize=12;fontStyle=0;aspect=fixed;shape=mxgraph.aws4.resourceIcon;resIcon=mxgraph.aws4.managed_streaming_for_kafka;labelBackgroundColor=default;" parent="1" vertex="1">
          <mxGeometry x="1206.06" y="930" width="28" height="28" as="geometry" />
        </mxCell>
        <mxCell id="e2mfzfb8jbQLuN6kquIz-53" value="" style="edgeStyle=orthogonalEdgeStyle;rounded=0;orthogonalLoop=1;jettySize=auto;html=1;" parent="1" target="e2mfzfb8jbQLuN6kquIz-64" edge="1">
          <mxGeometry relative="1" as="geometry">
            <mxPoint x="1220.48" y="1128.5" as="sourcePoint" />
          </mxGeometry>
        </mxCell>
        <mxCell id="e2mfzfb8jbQLuN6kquIz-54" style="edgeStyle=orthogonalEdgeStyle;rounded=0;orthogonalLoop=1;jettySize=auto;html=1;" parent="1" edge="1">
          <mxGeometry relative="1" as="geometry">
            <mxPoint x="1245.06" y="1073.47" as="sourcePoint" />
            <mxPoint x="1495.06" y="1073.4963157894738" as="targetPoint" />
          </mxGeometry>
        </mxCell>
        <mxCell id="e2mfzfb8jbQLuN6kquIz-55" value="1.9 Update pending transaction&lt;div&gt;details with final status&lt;/div&gt;" style="edgeLabel;html=1;align=center;verticalAlign=middle;resizable=0;points=[];" parent="e2mfzfb8jbQLuN6kquIz-54" vertex="1" connectable="0">
          <mxGeometry x="0.1694" relative="1" as="geometry">
            <mxPoint as="offset" />
          </mxGeometry>
        </mxCell>
        <mxCell id="e2mfzfb8jbQLuN6kquIz-56" style="edgeStyle=orthogonalEdgeStyle;rounded=0;orthogonalLoop=1;jettySize=auto;html=1;" parent="1" source="e2mfzfb8jbQLuN6kquIz-57" target="e2mfzfb8jbQLuN6kquIz-62" edge="1">
          <mxGeometry relative="1" as="geometry" />
        </mxCell>
        <mxCell id="e2mfzfb8jbQLuN6kquIz-57" value="&lt;span style=&quot;&quot;&gt;2.0 Produces&lt;br&gt;egapay.collection_completed&lt;/span&gt;" style="sketch=0;points=[[0,0,0],[0.25,0,0],[0.5,0,0],[0.75,0,0],[1,0,0],[0,1,0],[0.25,1,0],[0.5,1,0],[0.75,1,0],[1,1,0],[0,0.25,0],[0,0.5,0],[0,0.75,0],[1,0.25,0],[1,0.5,0],[1,0.75,0]];outlineConnect=0;fontColor=#FFFFFF;fillColor=#8C4FFF;strokeColor=#ffffff;dashed=0;verticalLabelPosition=bottom;verticalAlign=top;align=center;html=1;fontSize=12;fontStyle=0;aspect=fixed;shape=mxgraph.aws4.resourceIcon;resIcon=mxgraph.aws4.managed_streaming_for_kafka;labelBackgroundColor=default;" parent="1" vertex="1">
          <mxGeometry x="1206.48" y="1217.25" width="28" height="28" as="geometry" />
        </mxCell>
        <mxCell id="e2mfzfb8jbQLuN6kquIz-58" value="CLIENT&lt;br&gt;(MERCHANT/CUSTOMER/DEVELOPER API)" style="image;points=[];aspect=fixed;html=1;align=center;shadow=0;dashed=0;image=img/lib/allied_telesis/buildings/Medium_Business_Building.svg;" parent="1" vertex="1">
          <mxGeometry x="927.6600000000001" y="1337.25" width="37.33" height="48" as="geometry" />
        </mxCell>
        <mxCell id="e2mfzfb8jbQLuN6kquIz-59" style="edgeStyle=orthogonalEdgeStyle;rounded=0;orthogonalLoop=1;jettySize=auto;html=1;entryX=1.13;entryY=0.503;entryDx=0;entryDy=0;entryPerimeter=0;" parent="1" edge="1">
          <mxGeometry relative="1" as="geometry">
            <mxPoint x="1195.48" y="1365.876296296296" as="sourcePoint" />
            <mxPoint x="967.6629" y="1365.9739999999997" as="targetPoint" />
          </mxGeometry>
        </mxCell>
        <mxCell id="e2mfzfb8jbQLuN6kquIz-60" value="2.0.1 Send callback&lt;div&gt;message to client&lt;/div&gt;&lt;div&gt;via HTTP&lt;/div&gt;" style="edgeLabel;html=1;align=center;verticalAlign=middle;resizable=0;points=[];" parent="e2mfzfb8jbQLuN6kquIz-59" vertex="1" connectable="0">
          <mxGeometry x="-0.0902" y="-1" relative="1" as="geometry">
            <mxPoint x="-2" as="offset" />
          </mxGeometry>
        </mxCell>
        <mxCell id="e2mfzfb8jbQLuN6kquIz-61" value="2.0.1 Bulk write&lt;div&gt;completed transaction&lt;/div&gt;" style="edgeStyle=orthogonalEdgeStyle;rounded=0;orthogonalLoop=1;jettySize=auto;html=1;" parent="1" source="e2mfzfb8jbQLuN6kquIz-62" target="e2mfzfb8jbQLuN6kquIz-63" edge="1">
          <mxGeometry relative="1" as="geometry" />
        </mxCell>
        <mxCell id="e2mfzfb8jbQLuN6kquIz-62" value="MSSQL CONSUMER" style="aspect=fixed;sketch=0;html=1;dashed=0;whitespace=wrap;verticalLabelPosition=bottom;verticalAlign=top;fillColor=#2875E2;strokeColor=#ffffff;points=[[0.005,0.63,0],[0.1,0.2,0],[0.9,0.2,0],[0.5,0,0],[0.995,0.63,0],[0.72,0.99,0],[0.5,1,0],[0.28,0.99,0]];shape=mxgraph.kubernetes.icon2;kubernetesLabel=1;prIcon=job" parent="1" vertex="1">
          <mxGeometry x="964.99" y="1207.25" width="50" height="48" as="geometry" />
        </mxCell>
        <mxCell id="e2mfzfb8jbQLuN6kquIz-63" value="" style="image;aspect=fixed;html=1;points=[];align=center;fontSize=12;image=img/lib/azure2/databases/SQL_Server.svg;" parent="1" vertex="1">
          <mxGeometry x="715.48" y="1207.25" width="46.5" height="46.5" as="geometry" />
        </mxCell>
        <mxCell id="e2mfzfb8jbQLuN6kquIz-64" value="CLIENT&lt;br&gt;CALLBACK NOTIFIER" style="aspect=fixed;sketch=0;html=1;dashed=0;whitespace=wrap;verticalLabelPosition=bottom;verticalAlign=top;fillColor=#2875E2;strokeColor=#ffffff;points=[[0.005,0.63,0],[0.1,0.2,0],[0.9,0.2,0],[0.5,0,0],[0.995,0.63,0],[0.72,0.99,0],[0.5,1,0],[0.28,0.99,0]];shape=mxgraph.kubernetes.icon2;kubernetesLabel=1;prIcon=job" parent="1" vertex="1">
          <mxGeometry x="1195.48" y="1337.25" width="50" height="48" as="geometry" />
        </mxCell>
        <mxCell id="e2mfzfb8jbQLuN6kquIz-65" value="TRANSACTION&lt;br&gt;CACHE" style="image;sketch=0;aspect=fixed;html=1;points=[];align=center;fontSize=12;image=img/lib/mscae/Cache_Redis_Product.svg;" parent="1" vertex="1">
          <mxGeometry x="1495.48" y="1050" width="34.52" height="29" as="geometry" />
        </mxCell>
        <mxCell id="e2mfzfb8jbQLuN6kquIz-66" value="COMPLETED&lt;div&gt;COLLECTION CONSUMER&lt;/div&gt;" style="aspect=fixed;sketch=0;html=1;dashed=0;whitespace=wrap;verticalLabelPosition=bottom;verticalAlign=top;fillColor=#2875E2;strokeColor=#ffffff;points=[[0.005,0.63,0],[0.1,0.2,0],[0.9,0.2,0],[0.5,0,0],[0.995,0.63,0],[0.72,0.99,0],[0.5,1,0],[0.28,0.99,0]];shape=mxgraph.kubernetes.icon2;kubernetesLabel=1;prIcon=job" parent="1" vertex="1">
          <mxGeometry x="1195.06" y="1050" width="50" height="48" as="geometry" />
        </mxCell>
      </root>
    </mxGraphModel>
  </diagram>
</mxfile>
